<svg xmlns="http://www.w3.org/2000/svg" width="19" height="19" viewBox="0 0 19 19">
    <g fill="#000" fill-rule="evenodd">
        <path d="M18.677 9.339C18.677 4.189 14.488 0 9.34 0 4.189 0 0 4.19 0 9.339c0 5.15 4.19 9.338 9.339 9.338 5.15 0 9.338-4.189 9.338-9.338zm-18.044 0c0-4.8 3.905-8.706 8.706-8.706 4.8 0 8.705 3.906 8.705 8.706 0 4.8-3.905 8.705-8.705 8.705-4.8 0-8.706-3.905-8.706-8.705z"/>
        <path d="M12.827 8.317a.317.317 0 0 0-.54-.224l-2.874 2.87-2.872-2.87a.318.318 0 0 0-.448.448l3.096 3.093a.317.317 0 0 0 .448 0l3.096-3.093a.313.313 0 0 0 .094-.224z"/>
    </g>
</svg>
