<svg xmlns="http://www.w3.org/2000/svg" width="30" height="29" viewBox="0 0 30 29">
    <g fill="#000" fill-rule="evenodd">
        <path d="M2.85 22.933l2.028 2.034H.908v.925h5.086l.462-.462v-5.086h-.924v3.971l-1.963-1.963C-.393 17.056.149 9.539 4.836 4.852a13.32 13.32 0 0 1 9.48-3.927V0A14.238 14.238 0 0 0 4.183 4.198C-.836 9.217-1.41 17.271 2.85 22.933zM24.939 3.743h3.97v-.925h-5.087l-.462.463v5.085h.925V4.395l1.963 1.963c3.962 5.296 3.42 12.813-1.267 17.5a13.32 13.32 0 0 1-9.481 3.928v.924c3.828 0 7.427-1.49 10.134-4.198 5.019-5.018 5.592-13.072 1.333-18.735L24.94 3.743z"/>
    </g>
</svg>
