<svg xmlns="http://www.w3.org/2000/svg" width="20" height="19" viewBox="0 0 20 19">
    <g fill="#6D9EE1" fill-rule="evenodd">
        <path d="M19.193 17.587H.807a.68.68 0 0 0-.69.666c0 .357.32.666.69.666H19.21a.68.68 0 0 0 .69-.666c0-.357-.32-.666-.707-.666zM.118 11.692L.1 14.86a.675.675 0 0 0 .689.682l3.26-.016a.685.685 0 0 0 .488-.195l11.26-10.88a.67.67 0 0 0 0-.959L12.571.341a.728.728 0 0 0-.991 0L9.328 2.533.319 11.221a.711.711 0 0 0-.201.471zM12.084 1.77l2.269 2.192-1.277 1.235-2.27-2.193 1.278-1.234zM1.513 11.985l8.302-8.023 2.269 2.193-8.302 8.006-2.286.016.017-2.192z"/>
    </g>
</svg>
