<?xml version="1.0" encoding="UTF-8" standalone="no"?>
<svg width="17px" height="17px" viewBox="0 0 17 17" version="1.1" xmlns="http://www.w3.org/2000/svg" xmlns:xlink="http://www.w3.org/1999/xlink">
    <!-- Generator: Sketch 40 (33762) - http://www.bohemiancoding.com/sketch -->
    <title>Group 10</title>
    <desc>Created with Sketch.</desc>
    <defs></defs>
    <g id="-мой-профиль" stroke="none" stroke-width="1" fill="none" fill-rule="evenodd" fill-opacity="0.7">
        <g id="icon" transform="translate(-68.000000, -57.000000)" fill="#485465">
            <g id="Group-10" transform="translate(68.000000, 57.000000)">
                <g id="Group-9">
                    <g id="Group-7">
                        <g id="Group-6">
                            <g id="Group-5">
                                <path d="M3.31825,9.6815 C1.56125,7.9245 1.56125,5.0755 3.31825,3.3175 C5.07525,1.5605 7.92425,1.5605 9.68225,3.3175 C11.43925,5.0755 11.43925,7.9245 9.68225,9.6815 C7.92425,11.4385 5.07525,11.4385 3.31825,9.6815 M16.18325,15.3355 L11.49825,10.6505 C13.62425,8.0975 13.49125,4.2985 11.09625,1.9035 C8.55825,-0.6345 4.44225,-0.6345 1.90425,1.9035 C-0.63475,4.4415 -0.63475,8.5575 1.90425,11.0955 C4.12625,13.3185 7.55625,13.5945 10.08025,11.9265 L14.83625,16.6825 C15.20825,17.0545 15.81125,17.0545 16.18325,16.6825 C16.55425,16.3105 16.55425,15.7075 16.18325,15.3355" id="Icon:-Magnifier"></path>
                            </g>
                        </g>
                    </g>
                </g>
            </g>
        </g>
    </g>
</svg>