<svg xmlns="http://www.w3.org/2000/svg" width="22" height="18" viewBox="0 0 22 18">
    <path fill="#485465" fill-opacity=".7" fill-rule="evenodd" d="M17.084 16.28H2.86c-.501 0-.907-.4-.9-.887.006-.39.013-1.415.017-2.035.002-.324.13-.632.357-.869l3.951-4.105a1.793 1.793 0 0 1 2.366-.252l8.965 6.608c.672.496.312 1.54-.532 1.54M15.4 4.072c.972 0 1.76.768 1.76 1.715 0 .947-.788 1.714-1.76 1.714-.973 0-1.76-.767-1.76-1.714s.787-1.715 1.76-1.715m6.437-2.665c-.03-.673-.59-1.213-1.28-1.238a272.232 272.232 0 0 0-19.113 0C.753.193.192.733.162 1.406a177.673 177.673 0 0 0 0 15.188c.03.672.59 1.214 1.282 1.239 6.221.223 12.89.223 19.113 0 .69-.025 1.25-.567 1.28-1.239.217-4.917.217-10.27 0-15.188"/>
</svg>
