<svg xmlns="http://www.w3.org/2000/svg" width="23" height="19" viewBox="0 0 23 19">
    <path fill="#fff" fill-rule="evenodd" d="M22.885 2.363c-.84.362-1.74.603-2.68.7A4.745 4.745 0 0 0 22.293.466c-.909.529-1.908.91-2.97 1.104A4.59 4.59 0 0 0 15.956.001c-2.563-.047-4.678 2.051-4.724 4.683-.004.376.027.738.1 1.086C7.476 5.5 4.086 3.542 1.844.618a4.845 4.845 0 0 0-.669 2.386 4.815 4.815 0 0 0 1.998 4.005 4.596 4.596 0 0 1-2.093-.631v.06c-.04 2.311 1.528 4.265 3.648 4.743a4.53 4.53 0 0 1-2.097.042c.56 1.903 2.25 3.314 4.28 3.388A9.16 9.16 0 0 1 0 16.463a12.93 12.93 0 0 0 7.083 2.27c8.543.152 13.339-7.027 13.443-13.33a14.05 14.05 0 0 0 0-.617 9.42 9.42 0 0 0 2.359-2.423"/>
</svg>
