<svg xmlns="http://www.w3.org/2000/svg" width="30" height="19" viewBox="0 0 30 19">
    <path fill="#fff" fill-rule="evenodd" d="M9.375 8.036v3.214h5.317c-.214 1.38-1.607 4.045-5.317 4.045-3.2 0-5.813-2.652-5.813-5.92s2.612-5.92 5.813-5.92c1.821 0 3.04.777 3.737 1.447l2.544-2.451C14.022.924 11.906 0 9.375 0A9.368 9.368 0 0 0 0 9.375a9.368 9.368 0 0 0 9.375 9.375c5.41 0 9-3.804 9-9.16 0-.617-.067-1.086-.147-1.554H9.375zm20.09 0h-2.68V5.357h-2.678v2.679H21.43v2.678h2.678v2.679h2.679v-2.679h2.678V8.036z"/>
</svg>
