<svg xmlns="http://www.w3.org/2000/svg" width="11" height="16" viewBox="0 0 11 16">
    <path fill="#6A6B6B" fill-rule="evenodd" d="M10.379 6.896V4.887A4.893 4.893 0 0 0 5.492 0 4.893 4.893 0 0 0 .604 4.887v1.99C.301 6.993 0 7.254 0 7.773v2.735A5.498 5.498 0 0 0 5.492 16a5.498 5.498 0 0 0 5.491-5.492V7.773c0-.492-.293-.753-.604-.877zm-3.844 5.879a.135.135 0 0 1-.137.165H4.606a.135.135 0 0 1-.138-.165l.288-1.522a1.093 1.093 0 1 1 1.49-.017l.29 1.539zm2.158-5.977H2.29V4.887a3.206 3.206 0 0 1 3.202-3.202 3.206 3.206 0 0 1 3.201 3.202v1.911z"/>
</svg>
