<?xml version="1.0" encoding="iso-8859-1"?>
<!-- Generator: Adobe Illustrator 16.0.0, SVG Export Plug-In . SVG Version: 6.00 Build 0)  -->
<!DOCTYPE svg PUBLIC "-//W3C//DTD SVG 1.1//EN" "http://www.w3.org/Graphics/SVG/1.1/DTD/svg11.dtd">
<svg xmlns="http://www.w3.org/2000/svg" xmlns:xlink="http://www.w3.org/1999/xlink" version="1.1" id="Capa_1" x="0px" y="0px" width="512px" height="512px" viewBox="0 0 81.751 81.751" style="enable-background:new 0 0 81.751 81.751;" xml:space="preserve">
<g>
	<path d="M66.31,21.076h-8.659V5.522C57.651,2.483,55.167,0,52.13,0H15.683c-3.039,0-5.521,2.483-5.521,5.522v70.707   c0,3.038,2.483,5.522,5.521,5.522H52.13c3.036,0,5.521-2.484,5.521-5.522V58.475h8.659c2.912,0,5.28-2.352,5.28-5.244V26.32   C71.59,23.431,69.222,21.076,66.31,21.076z M28.075,3.98h11.661c0.368,0,0.67,0.299,0.67,0.668c0,0.366-0.302,0.667-0.67,0.667   H28.075c-0.369,0-0.667-0.301-0.667-0.667C27.408,4.279,27.706,3.98,28.075,3.98z M33.905,78.994c-1.522,0-2.761-1.236-2.761-2.765   c0-1.524,1.236-2.761,2.761-2.761s2.764,1.236,2.764,2.761C36.668,77.757,35.43,78.994,33.905,78.994z M53.807,71.535H14.001V8.757   h39.806v12.319H31.052c-2.909,0-5.276,2.355-5.276,5.247v26.911c0,2.891,2.367,5.244,5.276,5.244h3.189v9.015l9.016-9.015h10.55   V71.535z M69.254,53.233c0,1.604-1.318,2.908-2.944,2.908H42.292l-5.713,5.712v-5.712h-5.527c-1.621,0-2.94-1.305-2.94-2.908   V26.322c0-1.605,1.317-2.911,2.94-2.911H66.31c1.621,0,2.944,1.306,2.944,2.911V53.233z M63.413,31.75   c0,0.799-0.606,1.444-1.353,1.444H35.374c-0.745,0-1.353-0.645-1.353-1.444c0-0.794,0.608-1.443,1.353-1.443H62.06   C62.806,30.307,63.413,30.956,63.413,31.75z M63.413,39.58c0,0.8-0.606,1.447-1.353,1.447H35.374c-0.745,0-1.353-0.647-1.353-1.447   c0-0.793,0.608-1.44,1.353-1.44H62.06C62.806,38.139,63.413,38.786,63.413,39.58z M63.413,47.41c0,0.798-0.606,1.446-1.353,1.446   H35.374c-0.745,0-1.353-0.648-1.353-1.446c0-0.796,0.608-1.441,1.353-1.441H62.06C62.806,45.968,63.413,46.616,63.413,47.41z" fill="#6a6b6b"/>
</g>
<g>
</g>
<g>
</g>
<g>
</g>
<g>
</g>
<g>
</g>
<g>
</g>
<g>
</g>
<g>
</g>
<g>
</g>
<g>
</g>
<g>
</g>
<g>
</g>
<g>
</g>
<g>
</g>
<g>
</g>
</svg>
