<svg xmlns="http://www.w3.org/2000/svg" width="28" height="27" viewBox="0 0 28 27">
    <g fill="#6D9EE1" fill-rule="evenodd">
        <path d="M26.87 24.992H1.13a.96.96 0 0 0-.965.946c0 .508.447.947.964.947h25.765a.96.96 0 0 0 .965-.947c0-.507-.447-.946-.988-.946zM.165 16.615l-.024 4.5c0 .254.094.508.283.693a.952.952 0 0 0 .682.277l4.565-.023a.952.952 0 0 0 .682-.277L22.118 6.323c.376-.37.376-.97 0-1.361L17.6.485c-.376-.37-.988-.37-1.388 0L13.059 3.6.447 15.946c-.165.185-.282.416-.282.67zm16.753-14.1l3.176 3.116-1.788 1.754-3.177-3.116 1.789-1.754zm-14.8 14.516L13.74 5.63l3.177 3.115L5.294 20.123l-3.2.023.024-3.115z"/>
    </g>
</svg>
