<svg xmlns="http://www.w3.org/2000/svg" width="140" height="52" viewBox="0 0 140 52">
    <defs>
        <path id="a" d="M6.577 6.595H0V.02h6.577z"/>
        <path id="b" d="M0 .008h6.577v6.576H0z"/>
    </defs>
    <g fill="none" fill-rule="evenodd">
        <path fill="#FFF" fill-rule="nonzero" d="M70.799 32.561v-8.52l-3.352 8.52h-1.508l-3.332-8.52v8.52h-3.412V19.468h4.74l2.758 7.106 2.777-7.106h4.74V32.56zM82.304 22.805l-1.686 4.927h3.372l-1.686-4.927zm3.273 9.756l-.655-1.884h-5.217l-.654 1.884h-3.868l4.978-13.093h4.285l4.998 13.093h-3.867zM98.172 23.826c0-.903-.674-1.414-1.587-1.414h-2.757v2.808h2.757c.913 0 1.587-.51 1.587-1.394zm-7.755 8.735V19.468h6.625c2.975 0 4.601 1.983 4.601 4.358 0 2.355-1.626 4.338-4.601 4.338h-3.214v4.397h-3.411zM107.951 22.805l-1.686 4.927h3.372l-1.686-4.927zm3.273 9.756l-.655-1.884h-5.216l-.655 1.884h-3.868l4.979-13.093h4.284l4.999 13.093h-3.868zM116.123 32.561V19.468h3.412v10.149h5.316v2.944zM132.825 22.805l-1.686 4.927h3.372l-1.686-4.927zm3.273 9.756l-.655-1.884h-5.217l-.654 1.884h-3.868l4.979-13.093h4.284l4.998 13.093h-3.867z"/>
        <g>
            <path stroke="#FFF" stroke-width="3" d="M32.723 6.315l-9.686 5.547-9.648-5.614M32.723 45.678l-9.686-5.547-9.648 5.615M10.653 44.325l-.04-11.162-9.688-5.545M35.224 44.325l.04-11.162 9.688-5.545M35.224 7.834l.04 11.16 9.688 5.546M10.653 7.834l-.04 11.16L.925 24.54"/>
            <path fill="#FFF" fill-rule="nonzero" d="M6.577 14.784a3.288 3.288 0 1 1-6.577 0 3.288 3.288 0 0 1 6.577 0M6.577 37.356a3.288 3.288 0 1 1-6.577 0 3.288 3.288 0 0 1 6.577 0M45.96 37.47a3.288 3.288 0 1 1-6.577-.001 3.288 3.288 0 0 1 6.577 0M45.96 14.784a3.288 3.288 0 1 1-6.577 0 3.288 3.288 0 0 1 6.577 0M26.366 48.556a3.288 3.288 0 1 1-6.577 0 3.288 3.288 0 0 1 6.577 0M26.366 3.402a3.288 3.288 0 1 1-6.577 0 3.288 3.288 0 0 1 6.577 0"/>
        </g>
    </g>
</svg>
