<svg xmlns="http://www.w3.org/2000/svg" width="85" height="33" viewBox="0 0 85 33">
    <defs>
        <path id="a" d="M3.924 4.077H0V.012h3.924z"/>
        <path id="b" d="M0 .005h3.924V4.07H0z"/>
    </defs>
    <g fill="none" fill-rule="evenodd">
        <path fill="#FFF" fill-rule="nonzero" d="M43.241 20.13v-5.266l-2 5.267h-.9l-1.988-5.267v5.267h-2.035v-8.095h2.828l1.645 4.393 1.657-4.393h2.829v8.095zM50.105 14.099L49.1 17.145h2.012L50.105 14.1zm1.953 6.032l-.39-1.165h-3.113l-.39 1.165h-2.308l2.97-8.095h2.556l2.983 8.095h-2.308zM59.573 14.73c0-.558-.402-.874-.947-.874h-1.645v1.736h1.645c.545 0 .947-.316.947-.862zm-4.627 5.4v-8.094h3.952c1.775 0 2.746 1.226 2.746 2.694 0 1.456-.97 2.682-2.746 2.682h-1.917v2.719h-2.035zM65.407 14.099l-1.006 3.046h2.012L65.407 14.1zm1.953 6.032l-.39-1.165h-3.113l-.39 1.165h-2.308l2.97-8.095h2.556l2.983 8.095H67.36zM70.283 20.13v-8.094h2.036v6.274h3.171v1.82zM80.248 14.099l-1.006 3.046h2.012L80.248 14.1zm1.953 6.032l-.391-1.165h-3.112l-.391 1.165h-2.308l2.97-8.095h2.557l2.982 8.095h-2.307z"/>
        <g>
            <path stroke="#FFF" stroke-width="3" d="M20.524 3.904l-5.78 3.43-5.756-3.471M20.524 28.24l-5.78-3.429-5.756 3.47M7.356 27.403l-.024-6.9-5.78-3.428M22.016 27.403l.024-6.9 5.78-3.428M22.016 4.843l.024 6.9 5.78 3.429M7.356 4.843l-.024 6.9-5.78 3.429"/>
            <path fill="#FFF" fill-rule="nonzero" d="M4.924 9.14c0 1.123-.878 2.033-1.962 2.033S1 10.263 1 9.14c0-1.122.878-2.033 1.962-2.033s1.962.91 1.962 2.033M4.924 23.095c0 1.123-.878 2.033-1.962 2.033S1 24.218 1 23.095c0-1.123.878-2.033 1.962-2.033s1.962.91 1.962 2.033M28.421 23.165c0 1.123-.878 2.033-1.962 2.033-1.083 0-1.962-.91-1.962-2.033 0-1.122.879-2.033 1.962-2.033 1.084 0 1.962.91 1.962 2.033M28.421 9.14c0 1.123-.878 2.033-1.962 2.033-1.083 0-1.962-.91-1.962-2.033 0-1.122.879-2.033 1.962-2.033 1.084 0 1.962.91 1.962 2.033M16.73 30.02c0 1.122-.878 2.032-1.961 2.032-1.084 0-1.962-.91-1.962-2.032 0-1.123.878-2.033 1.962-2.033 1.083 0 1.962.91 1.962 2.033M16.73 2.103c0 1.123-.878 2.033-1.961 2.033-1.084 0-1.962-.91-1.962-2.033 0-1.123.878-2.033 1.962-2.033 1.083 0 1.962.91 1.962 2.033"/>
        </g>
    </g>
</svg>
